<svg xmlns="http://www.w3.org/2000/svg" width="97" height="21">
  <g fill="none" fill-rule="evenodd">
    <path fill="#A2B2D2" d="M0 0h7v7H0z"/>
    <path fill="#C6CEE5" d="M7 0h7v7H7z"/>
    <path fill="#FEFFFE" d="M14 0h7v7h-7z"/>
    <path fill="#98A7CE" d="M0 7h7v7H0z"/>
    <path fill="#758CBF" d="M7 7h7v7H7z"/>
    <path fill="#DBE0EC" d="M14 7h7v7h-7z"/>
    <path fill="#D2DAE6" d="M0 14h7v7H0z"/>
    <path fill="#96A8CE" d="M7 14h7v7H7z"/>
    <path fill="#BCC8E0" d="M14 14h7v7h-7z"/>
    <path fill="#FFF" d="M33.784 18v-5.45h3.91c3.312 0 5.152-2.278 5.152-4.946 0-2.69-1.817-4.945-5.152-4.945h-7.176V18h3.266zm3.473-8.326h-3.473v-4.14h3.473c1.288 0 2.254.782 2.254 2.07 0 1.265-.964 2.07-2.252 2.07zM57.49 18l-3.45-5.842c1.656-.39 3.358-1.84 3.358-4.554 0-2.852-1.955-4.945-5.152-4.945H45.07V18h3.266v-5.45h2.392L53.74 18h3.75zm-5.727-8.326h-3.427v-4.14h3.427c1.31 0 2.3.782 2.3 2.07 0 1.288-.99 2.07-2.3 2.07zm23.213 8.602c3.38 0 5.313-1.863 6.417-3.772l-2.806-1.357c-.644 1.265-2.024 2.23-3.61 2.23-2.784 0-4.808-2.138-4.808-5.036 0-2.896 2.022-5.035 4.805-5.035 1.587 0 2.967.99 3.61 2.23l2.807-1.38c-1.08-1.908-3.036-3.748-6.417-3.748-4.6 0-8.165 3.22-8.165 7.935 0 4.716 3.566 7.936 8.166 7.936zM90.792 18v-6.28l5.865-9.06H92.93l-3.77 6.163-3.82-6.164h-3.725l5.91 9.06V18h3.267zm-26.776-6.856c0-1.056-.888-1.944-1.944-1.944s-1.944.888-1.944 1.944c0 1.032.888 1.92 1.944 1.92s1.944-.888 1.944-1.92z"/>
  </g>
</svg>
